<?xml version="1.0" encoding="utf-8"?>
<!-- Generator: Adobe Illustrator 24.1.3, SVG Export Plug-In . SVG Version: 6.00 Build 0)  -->
<svg version="1.1" id="Capa_1" xmlns="http://www.w3.org/2000/svg" xmlns:xlink="http://www.w3.org/1999/xlink" x="0px" y="0px"
	 viewBox="0 0 1000 1080" style="enable-background:new 0 0 1000 1080;" xml:space="preserve">
<style type="text/css">
	.st0{fill:#9AC457;}
	.st1{fill:#D7EEB8;}
</style>
<path class="st0" d="M842.4,242.4c31.1,31.8,62,63.8,93.2,95.4c26.6,26.9,34.4,58.4,19.9,93c-14.1,33.7-41.8,49.2-78.1,49.6
	c-2.9,0-5.8-0.1-8.7,0c-29.7,1.4-66.5-11.7-87.1,5.1c-19.2,15.6-20.6,52.4-31.4,79.2c-16.2,40.1-21.4,81.3-20.4,124.6
	c1.8,81.2,0.7,162.4,0.4,243.6c-0.1,50.1-20.1,69.4-70.9,69.6c-92.7,0.4-101.2-8-101.2-100.1c0-47.4-0.3-94.7,0.2-142.1
	c0.1-12.7-1.9-19.9-17.1-19c-66.7,3.8-130.8-4.8-189.3-47.1c-6.6,40.5-25.6,69.7-53.1,93.9c-15,13.2-17.3,28.7-10.3,47.2
	c10.6,28,20.7,56.2,29.9,84.7c15.2,47.1-9,80.8-58.5,82.6c-90.1,3.3-92.7-0.2-125.7-84.7c-28.8-73.8-31.4-144.3,9.3-214.5
	c16.1-27.7,1.9-49.9-19.4-70.8c-11.8,17.4-21.6,37.1-47.8,34.7c-21.2-2-34.4-12.5-39.2-32.4c-23-95.6,45.7-210,140.9-234.2
	c20.5-5.2,41.6-7.6,63.1-7.5c105.4,0.5,210.8,0.2,316.1,0.2c21.6,0,46.8-31.9,41.4-52c-2.2-8.3-8.8-5.7-13.9-5.8
	c-16.4-0.4-32.9,0.1-49.3-0.2c-18.9-0.3-31.9-9.7-34.6-28.5c-2.8-19.6,9.1-30.4,27.1-35.2c23.3-6.2,46.6-12.2,69.9-18.3
	c17.6-3.8,35.2-5.6,53.3-5.4c51.7,0.6,56.9-5.8,48.3-54.8c22.7-8.1,44.8,3,67.3,2C792.1,210.9,820.4,221.6,842.4,242.4z
	 M760.8,364.4c17.6-0.9,28.6-10.3,28.9-28.4c0.3-17.9-9.6-28.9-28.2-29.5c-19.9-0.6-31.1,10-30.9,29.5
	C730.9,354.2,741.9,363.6,760.8,364.4z"/>
<path class="st1" d="M699.7,193.1c8.6,49.1,3.3,55.4-48.3,54.8c-18.1-0.2-35.7,1.5-53.3,5.4c-15-10.2-31.8-4.4-47.6-4.7
	C482.2,247,442.6,208,442.1,140.1c-0.1-12.5-0.6-25.2,0.4-37.6c1.3-16.7,11-27.5,27.8-27.4c16.7,0.1,26.7,11.2,28.4,27.4
	c1.5,14.3,0.1,29,0.7,43.4c1.4,28.8,17.8,43.3,49.4,44.4c44.6,1.4,63.7-10.1,66.8-41.7c1.4-14.4,0.1-29,0.7-43.4
	c0.7-18,10-30.3,28.3-29.9c17.9,0.4,27.7,12.7,28.4,30.5c0.7,17.3,3.9,36-1.1,51.8C662.8,186.3,674.6,193.6,699.7,193.1z"/>
<path class="st1" d="M842.4,242.4c-22-20.8-50.3-31.5-75.4-47.3c3.3-1.6,6.4-4.3,9.8-4.6c47.6-4.9,54.7-12.9,55.1-61.5
	c0.1-10.5,0.1-21.3,2.6-31.4c3.6-14.2,13.1-24.6,29-22.5c16,2.1,25.2,11.6,25.9,29.2c1.7,47.2,1.3,93.2-42,125.4
	C844.3,232,844,238.1,842.4,242.4z"/>
</svg>
